<svg xmlns="http://www.w3.org/2000/svg" viewBox="0 0 32 32">
  <style>@media (prefers-color-scheme: dark) {.a { fill: #F4F4F5 }}</style>
  <path class="a" fill="#09090B" d="M13.194 9.415 4.8 15.011V4.399a1.399 1.399 0 0 1 2.388-.99zm5.596 0 8.393 5.596V4.399a1.398 1.398 0 0 0-2.388-.99z"/>
  <path class="a" fill="#09090B" d="M4.8 9.415v8.394a11.191 11.191 0 1 0 22.383 0V9.415zm6.295 9.793a2.098 2.098 0 1 1 0-4.197 2.098 2.098 0 0 1 0 4.197m10.492 0a2.098 2.098 0 1 1 0-4.197 2.098 2.098 0 0 1 0 4.197"/>
</svg>
