<svg xmlns="http://www.w3.org/2000/svg" viewBox="0 0 137 23"
      class="mx-auto w-[8.5625rem] h-[1.375rem] md:w-[12.5rem] md:h-8" aria-hidden="true"
      focusable="false" fill="white">
      <path
            d="M129.692 10.865h3.864v2.348q0 .605.368.895.391.267 1.081.266.345 0 .713-.048.368-.073.644-.17.207.243.345.581.16.339.161.799 0 .896-.667 1.5-.644.582-2.3.581-2.024 0-3.128-.968-1.081-.968-1.081-3.146zm2.53-1.96V5.758h4.347q.138.243.253.654a2.8 2.8 0 0 1 .138.895q0 .847-.368 1.235-.345.363-.943.363zm1.334 2.54h-3.864V2.758q.253-.073.713-.145a5 5 0 0 1 1.012-.097q1.127 0 1.633.412.506.411.506 1.524zm-11.637 3.195q.392 0 .851-.072.483-.097.713-.242V12.39l-1.656.145q-.644.048-1.058.29a.79.79 0 0 0-.414.726q0 .485.345.8.369.29 1.219.29m-.184-9.511q2.508 0 4.002 1.09 1.518 1.064 1.518 3.339v5.421q0 .63-.345 1.041a3.3 3.3 0 0 1-.782.678q-.735.459-1.794.702-1.058.242-2.415.242-2.414 0-3.887-.968-1.449-.993-1.449-2.977 0-1.67.943-2.566.966-.895 2.921-1.113l3.013-.339v-.17q0-.7-.598-.992-.575-.315-1.679-.314-.85 0-1.702.193-.828.194-1.495.484-.299-.218-.506-.653a2.3 2.3 0 0 1-.207-.944q0-1.161 1.173-1.646a6.6 6.6 0 0 1 1.564-.387q.921-.12 1.725-.121m-6.492-.412q0 .604-.299 1.089-.3.459-.69.726a6.5 6.5 0 0 0-1.265-.702q-.69-.29-1.587-.29-1.173 0-2.001.532-.805.508-1.242 1.5-.414.968-.414 2.348 0 2.13 1.012 3.243 1.035 1.114 2.852 1.114.942 0 1.587-.267.666-.266 1.265-.605.39.315.598.799.23.485.23 1.113 0 .556-.276 1.017-.276.459-.943.774-.414.194-1.173.387-.76.194-1.84.194-2.07 0-3.772-.823-1.68-.823-2.691-2.541-.99-1.719-.989-4.405 0-2.517.966-4.235.966-1.743 2.599-2.638 1.656-.92 3.634-.92 1.402 0 2.392.339.989.339 1.518.92.528.58.529 1.33M91.01 16.77q-1.38 0-2.554-.556-1.172-.556-1.886-1.815-.69-1.284-.69-3.365 0-1.935.736-3.243a4.67 4.67 0 0 1 2.07-1.984q1.357-.678 3.151-.678 1.312 0 2.415.363 1.128.363 1.725.775.46.315.713.75.276.435.276 1.089v7.624h-3.749V8.638a2.4 2.4 0 0 0-.506-.193 2.2 2.2 0 0 0-.713-.097q-.989 0-1.61.653-.62.63-.62 2.058 0 1.524.551 2.081.576.557 1.426.557.69 0 1.15-.242.46-.267.828-.581l.115 3.219a5.8 5.8 0 0 1-1.219.484q-.666.193-1.61.193m2.276.218V14.81h3.68v2.275q0 1.694-.782 2.783-.781 1.113-2.116 1.646-1.31.533-2.944.533a10 10 0 0 1-2.185-.218q-.942-.195-1.495-.581-.828-.58-.828-1.646 0-.557.207-1.016.23-.46.506-.678.667.387 1.495.653a5.9 5.9 0 0 0 1.771.267q1.22 0 1.955-.436.736-.435.736-1.404M83.971 9.68v2.226h-3.91V9.8q0-.75-.437-1.089-.414-.363-1.104-.363a3.1 3.1 0 0 0-.874.12q-.39.122-.759.316v3.122h-3.91v-3.68q0-.653.253-1.064a3 3 0 0 1 .736-.75q.782-.582 1.978-.92 1.196-.363 2.622-.363 2.6 0 4.002 1.21 1.404 1.186 1.403 3.34m-10.994 1.185h3.91v6.365a6 6 0 0 1-.736.145 6.5 6.5 0 0 1-1.012.073q-1.127 0-1.656-.411-.506-.412-.506-1.525zm7.084 0h3.91v6.365a6 6 0 0 1-.736.145 6.5 6.5 0 0 1-1.012.073q-1.127 0-1.656-.411-.506-.412-.506-1.525zM66.394 2.225q0-.92.598-1.55.598-.629 1.541-.629t1.541.63.598 1.549q0 .895-.598 1.549-.598.63-1.541.629-.943 0-1.541-.63a2.22 2.22 0 0 1-.598-1.548m.184 8.64h3.91v6.365a6 6 0 0 1-.736.145 6.5 6.5 0 0 1-1.012.073q-1.127 0-1.656-.411-.506-.412-.506-1.525zm3.91 2.154h-3.91V5.661q.253-.072.713-.145a7 7 0 0 1 1.035-.072q1.15 0 1.656.411.506.387.506 1.525zM57.39 10.865h3.864v2.348q0 .605.368.895.391.267 1.081.266.345 0 .713-.048a5 5 0 0 0 .644-.17q.207.243.345.581.162.339.161.799 0 .896-.667 1.5-.644.582-2.3.581-2.024 0-3.128-.968-1.08-.968-1.08-3.146zm2.53-1.96V5.758h4.347q.139.243.253.654a2.8 2.8 0 0 1 .138.895q0 .847-.368 1.235-.345.363-.943.363zm1.334 2.54H57.39V2.758q.254-.073.713-.145a5 5 0 0 1 1.012-.097q1.128 0 1.633.412.506.411.506 1.524zm-5.8 2.3q0 1.839-1.334 2.88-1.311 1.04-3.84 1.04-1.956 0-3.22-.58-1.243-.605-1.243-1.864 0-.58.23-.992.23-.411.552-.653.667.387 1.518.701.875.29 2.001.29 1.472 0 1.472-.798a.62.62 0 0 0-.276-.532q-.275-.194-.92-.315l-.69-.145q-1.978-.411-2.967-1.307t-.989-2.517q0-1.815 1.403-2.832t3.657-1.016q1.127 0 2.047.242.943.217 1.495.726.552.484.552 1.258 0 .533-.207.944-.184.412-.483.678-.253-.17-.805-.339-.53-.17-1.15-.29a6 6 0 0 0-1.104-.121q-.759 0-1.173.193-.414.17-.414.557 0 .266.23.436t.874.314l.713.17q2.208.533 3.128 1.476.943.92.943 2.396M39.44 2.225q0-.92.599-1.55.597-.629 1.54-.629t1.542.63q.598.63.598 1.549 0 .895-.598 1.549-.599.63-1.541.629-.943 0-1.541-.63a2.22 2.22 0 0 1-.598-1.548m.185 8.64h3.91v6.365a6 6 0 0 1-.736.145 6.5 6.5 0 0 1-1.012.073q-1.126 0-1.656-.411-.506-.412-.506-1.525zm3.91 2.154h-3.91V5.661q.253-.072.713-.145a7 7 0 0 1 1.035-.072q1.15 0 1.656.411.506.387.506 1.525zM28.04 6.557h4.025v10.552l-1.886.218q-.989 0-1.564-.605t-.575-1.646zm2.139 10.77v-3.413h7.153q.16.267.299.702t.138.944q0 .896-.368 1.331-.368.436-1.012.436zm1.886-5.18H28.04V2.54q.276-.048.805-.12.552-.097 1.058-.097 1.15 0 1.656.411.506.412.506 1.597zM6.957 4.935.5 9.239V1.076a1.076 1.076 0 0 1 1.837-.76zm4.303 0 6.458 4.304V1.076a1.076 1.076 0 0 0-1.838-.76z"></path>
      <path
            d="M.5 4.935v6.456a8.609 8.609 0 0 0 17.218 0V4.935zm4.842 7.532a1.614 1.614 0 1 1 0-3.227 1.614 1.614 0 0 1 0 3.227m8.071 0a1.614 1.614 0 1 1 0-3.228 1.614 1.614 0 0 1 0 3.228"></path>
</svg>